<?xml version="1.0" encoding="UTF-8" standalone="no"?>
<svg
   width="128"
   height="128"
   style="enable-background:new 0 0 128 128;"
   version="1.1"
   id="svg277"
   sodipodi:docname="vineyard_leaf.svg"
   inkscape:version="1.1 (ce6663b3b7, 2021-05-25)"
   xmlns:inkscape="http://www.inkscape.org/namespaces/inkscape"
   xmlns:sodipodi="http://sodipodi.sourceforge.net/DTD/sodipodi-0.dtd"
   xmlns:xlink="http://www.w3.org/1999/xlink"
   xmlns="http://www.w3.org/2000/svg"
   xmlns:svg="http://www.w3.org/2000/svg">
  <defs
     id="defs281">
    <linearGradient
       id="SVGID_1_"
       gradientUnits="userSpaceOnUse"
       x1="22.5936"
       x2="111.9448"
       y1="7.019"
       y2="112.8658">
      <stop
         offset="6.461232e-03"
         style="stop-color:#FFCC80"
         id="stop2" />
      <stop
         offset="0.9991"
         style="stop-color:#F57C00"
         id="stop4" />
    </linearGradient>
  </defs>
  <sodipodi:namedview
     id="namedview279"
     pagecolor="#ffffff"
     bordercolor="#666666"
     borderopacity="1.0"
     inkscape:pageshadow="2"
     inkscape:pageopacity="0.0"
     inkscape:pagecheckerboard="0"
     showgrid="false"
     inkscape:zoom="2.9140625"
     inkscape:cx="64"
     inkscape:cy="76.182306"
     inkscape:window-width="1366"
     inkscape:window-height="731"
     inkscape:window-x="300"
     inkscape:window-y="1080"
     inkscape:window-maximized="1"
     inkscape:current-layer="Layer_1" />
  <g
     id="Layer_1">
    <path
       d="m 117.7,37.34 h -0.13 c 0,-0.15 0,-0.15 0,-0.15 l -0.13,0.15 c -1.31,0.3 -10.22,3.79 -13.49,5.01 l 0.65,-5.46 c 0,0 -6.94,3.34 -11.4,7.44 -0.65,0.61 -1.31,0.15 -1.18,-0.61 l -1.05,-4.4 c 0,0 -1.05,-2.58 -7.86,14.42 -0.79,1.97 -1.96,3.79 -3.54,5.16 0,0.15 -0.13,0.15 -0.26,0.3 -1.44,1.06 -3.41,0.15 -3.67,-1.82 -0.39,-2.73 0.26,-5.62 1.7,-7.89 9.43,-15.33 7.33,-25.65 7.33,-25.65 l -7.07,4.7 C 77.21,29 76.55,28.69 76.55,28.08 76.42,21.4 74.45,11.84 74.45,11.84 l -4.72,4.55 C 68.12,12.95 64.3,5.74 63.22,3.79 c -1.09,1.95 -4.91,9.16 -6.51,12.6 l -4.72,-4.55 c 0,0 -1.96,9.56 -2.1,16.24 0,0.61 -0.65,0.91 -1.05,0.46 l -7.07,-4.7 c 0,0 -2.1,10.32 7.33,25.65 1.44,2.28 2.1,5.16 1.7,7.89 -0.26,1.97 -2.23,2.88 -3.67,1.82 C 47,59.05 46.87,59.05 46.87,58.9 45.3,57.53 44.12,55.71 43.33,53.74 36.52,36.74 35.47,39.32 35.47,39.32 l -1.05,4.4 c 0.13,0.76 -0.52,1.21 -1.18,0.61 -4.45,-4.1 -11.4,-7.44 -11.4,-7.44 l 0.65,5.46 C 19.22,41.14 10.31,37.65 9,37.34 L 8.87,37.19 c 0,0 0,0 0,0.15 H 8.8 l 0.13,0.15 c 0.52,1.37 4.98,11.08 6.68,14.72 l -5.37,0.61 c 0,0 5.37,7.59 9.82,11.84 0.39,0.46 0.26,1.06 -0.26,0.91 l -5.37,1.67 c 0,0 -0.79,4.1 14.28,6.98 2.23,0.46 4.45,1.82 6.16,3.79 1.31,1.52 0.65,4.1 -1.18,4.55 -2.36,0.76 -5.11,1.52 -7.86,1.97 0,0 -5.24,1.67 -5.89,1.67 6.05,5.33 12.39,10.05 20.34,9.24 1.36,-0.14 2.74,-0.42 4.07,-0.11 0.23,0.05 0.48,0.14 0.61,0.36 0.31,0.52 -0.23,1.15 -0.71,1.48 -1.1,0.75 -2.21,1.5 -3.31,2.24 17.7,3.88 16.92,-8.03 21.26,-10.02 -0.04,1.68 -0.06,3.37 -0.08,5.05 -0.09,9.2 0.06,18.47 1.41,27.58 0.08,0.57 0.04,1.48 0.57,1.84 0.62,0.42 2.33,0.05 2.65,-0.67 0.3,-0.66 -0.14,-2.04 -0.27,-2.77 -0.2,-1.14 -0.39,-2.28 -0.56,-3.42 -0.67,-4.5 -1.12,-9.04 -1.43,-13.6 -0.31,-4.71 -0.47,-9.43 -0.56,-14.14 4.76,1.48 3.44,14.15 21.62,10.16 -1.1,-0.75 -2.21,-1.5 -3.31,-2.24 -0.47,-0.32 -1.02,-0.95 -0.71,-1.48 0.13,-0.22 0.38,-0.31 0.61,-0.36 1.34,-0.31 2.71,-0.03 4.07,0.11 7.95,0.81 14.29,-3.91 20.34,-9.24 -0.65,0 -5.89,-1.67 -5.89,-1.67 -2.75,-0.46 -5.5,-1.21 -7.86,-1.97 -1.83,-0.46 -2.49,-3.04 -1.18,-4.55 1.7,-1.97 3.93,-3.34 6.16,-3.79 15.06,-2.88 14.28,-6.98 14.28,-6.98 l -5.37,-1.67 c -0.52,0.15 -0.65,-0.46 -0.26,-0.91 4.45,-4.25 9.82,-11.84 9.82,-11.84 l -5.37,-0.61 c 1.7,-3.64 6.16,-13.35 6.68,-14.72 z"
       style="fill:#17cc80;fill-opacity:1"
       id="path7" />
    <g
       style="opacity:0.2"
       id="g11">
      <path
         d="m 63.25,10.16 c 1.39,2.65 2.93,5.66 3.79,7.51 0.41,0.88 1.22,1.5 2.17,1.68 0.18,0.03 0.36,0.05 0.55,0.05 0.77,0 1.52,-0.3 2.08,-0.84 l 0.66,-0.64 c 0.49,3.12 1,7.04 1.06,10.21 0.02,2.01 1.63,3.63 3.6,3.63 0.85,0 1.67,-0.31 2.31,-0.86 l 2.23,-1.48 c -0.46,4.13 -2.04,10.58 -6.89,18.46 -1.85,2.92 -2.62,6.53 -2.14,9.89 0.38,2.82 2.61,4.87 5.32,4.87 1.11,0 2.19,-0.36 3.1,-1.03 0.09,-0.06 0.17,-0.13 0.25,-0.2 0.25,-0.2 0.45,-0.4 0.61,-0.62 1.66,-1.56 3.02,-3.6 3.95,-5.94 1.6,-4 2.84,-6.8 3.79,-8.75 0.06,0.08 0.12,0.17 0.19,0.25 0.68,0.8 1.67,1.26 2.72,1.26 0.96,0 1.9,-0.38 2.64,-1.07 1.69,-1.55 3.81,-3.01 5.71,-4.18 0,0.91 0.42,1.79 1.14,2.36 0.54,0.42 1.19,0.64 1.86,0.64 0.35,0 0.7,-0.06 1.04,-0.19 1,-0.37 2.53,-0.95 4.2,-1.6 0.85,-0.32 1.85,-0.71 2.88,-1.1 -1.38,3.04 -2.96,6.47 -3.9,8.47 -0.41,0.88 -0.37,1.89 0.1,2.74 0.47,0.84 1.32,1.41 2.28,1.52 l 0.17,0.02 c -1.84,2.36 -4.23,5.25 -6.35,7.27 -0.07,0.07 -0.14,0.14 -0.2,0.21 -0.98,1.13 -1.23,2.68 -0.65,3.96 0.51,1.12 1.56,1.84 2.77,1.93 l 0.16,0.05 c -1.77,0.8 -4.63,1.76 -9.25,2.65 -2.9,0.59 -5.68,2.29 -7.83,4.77 -1.33,1.54 -1.76,3.72 -1.13,5.71 0.58,1.83 1.98,3.2 3.74,3.69 2.88,0.92 5.56,1.6 7.99,2.02 0.09,0.03 0.18,0.06 0.27,0.09 -4.16,3.15 -7.96,4.99 -12.23,4.99 -0.49,0 -0.99,-0.03 -1.48,-0.08 -0.24,-0.03 -0.49,-0.06 -0.74,-0.09 -0.7,-0.09 -1.48,-0.18 -2.31,-0.18 -0.72,0 -1.38,0.07 -2.01,0.22 -1.41,0.33 -2.14,1.14 -2.51,1.75 -0.56,0.94 -0.65,2.01 -0.33,3.02 -5.38,-0.18 -7.03,-2.92 -8.77,-5.83 -1.18,-1.96 -2.51,-4.17 -5.04,-4.96 -0.29,-0.09 -0.59,-0.14 -0.89,-0.14 -0.37,0 -0.75,0.07 -1.1,0.21 -0.21,-0.05 -0.43,-0.07 -0.65,-0.07 -0.43,0 -0.85,0.09 -1.25,0.27 -2.07,0.95 -3.21,2.85 -4.31,4.69 -1.74,2.9 -3.39,5.65 -8.77,5.83 0.32,-1 0.23,-2.07 -0.33,-3.02 -0.37,-0.62 -1.1,-1.43 -2.51,-1.75 -0.63,-0.15 -1.29,-0.22 -2.01,-0.22 -0.83,0 -1.62,0.1 -2.31,0.18 -0.25,0.03 -0.49,0.06 -0.74,0.09 -0.49,0.05 -0.99,0.08 -1.48,0.08 -4.26,0 -8.06,-1.84 -12.23,-4.99 0.09,-0.03 0.18,-0.06 0.27,-0.09 2.43,-0.42 5.12,-1.09 7.99,-2.02 1.76,-0.48 3.16,-1.85 3.74,-3.69 0.63,-1.98 0.2,-4.17 -1.13,-5.71 -2.14,-2.48 -4.92,-4.18 -7.86,-4.78 -4.6,-0.88 -7.46,-1.84 -9.22,-2.64 l 0.16,-0.05 c 1.21,-0.09 2.26,-0.81 2.77,-1.93 0.58,-1.27 0.33,-2.83 -0.65,-3.96 -0.06,-0.07 -0.13,-0.14 -0.2,-0.21 -2.12,-2.03 -4.51,-4.91 -6.35,-7.27 l 0.17,-0.02 c 0.96,-0.11 1.81,-0.67 2.28,-1.52 0.47,-0.84 0.51,-1.86 0.1,-2.74 -0.94,-2 -2.52,-5.43 -3.9,-8.47 1.03,0.39 2.03,0.77 2.88,1.1 1.68,0.64 3.2,1.22 4.2,1.6 0.34,0.13 0.69,0.19 1.04,0.19 0.66,0 1.32,-0.22 1.86,-0.64 0.73,-0.57 1.14,-1.45 1.14,-2.36 1.9,1.17 4.01,2.62 5.7,4.18 0.75,0.7 1.69,1.08 2.65,1.08 1.05,0 2.04,-0.46 2.72,-1.26 0.07,-0.08 0.13,-0.16 0.19,-0.25 0.94,1.95 2.18,4.75 3.78,8.75 0.93,2.34 2.29,4.39 3.95,5.95 0.16,0.21 0.36,0.42 0.6,0.61 0.08,0.07 0.16,0.14 0.25,0.21 0.92,0.68 1.99,1.03 3.1,1.03 2.71,0 4.94,-2.05 5.31,-4.84 0.49,-3.39 -0.29,-7.01 -2.12,-9.89 -4.86,-7.9 -6.45,-14.36 -6.91,-18.49 l 2.23,1.48 c 0.65,0.55 1.47,0.86 2.31,0.86 1.97,0 3.58,-1.63 3.6,-3.63 0.06,-3.17 0.57,-7.09 1.06,-10.21 l 0.66,0.64 c 0.56,0.54 1.31,0.84 2.08,0.84 0.18,0 0.36,-0.02 0.55,-0.05 0.95,-0.18 1.76,-0.8 2.17,-1.68 0.91,-1.87 2.45,-4.88 3.84,-7.53 M 52.93,28.09 v 0 0 m 39.29,13.6 v 0 0 m -9.63,17.2 v 0 0 M 63.25,3.8 c -1.09,1.95 -4.91,9.16 -6.51,12.6 l -4.72,-4.55 c 0,0 -1.96,9.56 -2.1,16.24 0,0.4 -0.29,0.67 -0.6,0.67 -0.16,0 -0.32,-0.07 -0.45,-0.22 l -7.07,-4.7 c 0,0 -2.1,10.32 7.33,25.65 1.44,2.28 2.1,5.16 1.7,7.89 -0.19,1.4 -1.23,2.27 -2.34,2.27 -0.45,0 -0.91,-0.14 -1.32,-0.45 -0.13,-0.15 -0.26,-0.15 -0.26,-0.3 -1.57,-1.37 -2.75,-3.19 -3.54,-5.16 -5.22,-13.04 -7.06,-14.56 -7.63,-14.56 -0.17,0 -0.23,0.14 -0.23,0.14 l -1.05,4.4 c 0.09,0.51 -0.18,0.89 -0.57,0.89 -0.19,0 -0.4,-0.09 -0.61,-0.28 -4.45,-4.1 -11.4,-7.44 -11.4,-7.44 l 0.65,5.46 C 19.26,41.14 10.35,37.65 9.04,37.34 L 8.91,37.19 c 0,0 0,0 0,0.15 H 8.8 l 0.13,0.15 c 0.52,1.37 4.98,11.08 6.68,14.72 l -5.37,0.61 c 0,0 5.37,7.59 9.82,11.84 0.35,0.41 0.28,0.93 -0.11,0.93 -0.05,0 -0.1,-0.01 -0.15,-0.02 l -5.37,1.67 c 0,0 -0.79,4.1 14.28,6.98 2.23,0.46 4.45,1.82 6.16,3.79 1.31,1.52 0.65,4.1 -1.18,4.55 -2.36,0.76 -5.11,1.52 -7.86,1.97 0,0 -5.24,1.67 -5.89,1.67 5.59,4.93 11.43,9.33 18.55,9.33 0.59,0 1.18,-0.03 1.79,-0.09 0.91,-0.09 1.83,-0.25 2.74,-0.25 0.45,0 0.89,0.04 1.33,0.14 0.23,0.05 0.48,0.14 0.61,0.36 0.31,0.52 -0.23,1.15 -0.71,1.48 -1.1,0.75 -2.21,1.5 -3.31,2.24 2.45,0.54 4.55,0.77 6.36,0.77 11.23,0 11.17,-9.08 14.9,-10.8 -0.04,1.68 -0.06,3.37 -0.08,5.05 -0.09,9.2 0.06,18.47 1.41,27.58 0.08,0.57 0.04,1.48 0.57,1.84 0.18,0.12 0.45,0.17 0.75,0.17 0.74,0 1.67,-0.33 1.9,-0.84 0.3,-0.66 -0.14,-2.04 -0.27,-2.77 -0.2,-1.14 -0.39,-2.28 -0.56,-3.42 -0.67,-4.5 -1.12,-9.04 -1.43,-13.6 -0.31,-4.71 -0.47,-9.43 -0.56,-14.14 4.11,1.28 3.69,10.93 15.27,10.93 1.81,0 3.9,-0.23 6.36,-0.77 -1.1,-0.75 -2.21,-1.5 -3.31,-2.24 -0.47,-0.32 -1.02,-0.95 -0.71,-1.48 0.13,-0.22 0.38,-0.31 0.61,-0.36 0.44,-0.1 0.88,-0.14 1.33,-0.14 0.91,0 1.83,0.16 2.74,0.25 0.6,0.06 1.2,0.09 1.79,0.09 7.12,0 12.96,-4.4 18.55,-9.33 -0.65,0 -5.89,-1.67 -5.89,-1.67 -2.75,-0.46 -5.5,-1.21 -7.86,-1.97 -1.83,-0.46 -2.49,-3.04 -1.18,-4.55 1.7,-1.97 3.93,-3.34 6.16,-3.79 15.06,-2.88 14.28,-6.98 14.28,-6.98 l -5.37,-1.67 c -0.06,0.02 -0.11,0.02 -0.15,0.02 -0.39,0 -0.46,-0.53 -0.11,-0.93 4.45,-4.25 9.82,-11.84 9.82,-11.84 l -5.37,-0.61 c 1.7,-3.64 6.16,-13.35 6.68,-14.72 l 0.13,-0.15 h -0.13 c 0,-0.15 0,-0.15 0,-0.15 l -0.13,0.15 c -1.31,0.3 -10.22,3.79 -13.49,5.01 l 0.65,-5.46 c 0,0 -6.94,3.34 -11.4,7.44 -0.21,0.2 -0.42,0.28 -0.61,0.28 -0.39,0 -0.66,-0.37 -0.57,-0.89 l -1.05,-4.4 c 0,0 -0.06,-0.14 -0.23,-0.14 -0.57,0 -2.4,1.52 -7.63,14.56 -0.79,1.97 -1.96,3.79 -3.54,5.16 0,0.15 -0.13,0.15 -0.26,0.3 -0.42,0.31 -0.87,0.45 -1.32,0.45 -1.11,0 -2.16,-0.87 -2.34,-2.27 -0.39,-2.73 0.26,-5.62 1.7,-7.89 9.43,-15.33 7.33,-25.65 7.33,-25.65 l -7.07,4.7 c -0.13,0.15 -0.29,0.22 -0.45,0.22 -0.31,0 -0.6,-0.27 -0.6,-0.67 -0.13,-6.68 -2.1,-16.24 -2.1,-16.24 L 69.74,16.4 C 68.16,12.96 64.34,5.75 63.25,3.8 Z m 54.45,33.54 z"
         style="fill:#424242"
         id="path9" />
    </g>
    <g
       style="opacity:0.3;"
       id="g25">
      <path
         d="M63.15,28.55c0,0,0.24,3.58,0.38,8.93c0.08,2.68,0.15,5.8,0.19,9.14c0.02,1.67,0.04,3.4,0.06,5.15 c0.01,1.76,0.02,3.54,0.03,5.32c0,1.78-0.01,3.57-0.01,5.32c-0.01,1.76-0.02,3.48-0.04,5.15c-0.03,3.34-0.08,6.47-0.15,9.14 c-0.12,5.35-0.35,8.93-0.35,8.93s-0.45-3.56-0.8-8.91c-0.19-2.68-0.35-5.8-0.46-9.15c-0.04-1.67-0.12-3.4-0.13-5.16 c-0.02-1.76-0.04-3.54-0.06-5.33c0.01-1.79,0.03-3.57,0.04-5.33c0.01-1.76,0.08-3.49,0.12-5.16c0.1-3.35,0.25-6.47,0.43-9.15 C62.71,32.11,63.15,28.55,63.15,28.55z"
         style="fill:#424242;"
         id="path15" />
      <path
         d="M29.82,57.11c0,0,1.86,1.82,4.65,4.56c0.7,0.67,1.46,1.4,2.26,2.17c0.8,0.78,1.68,1.54,2.55,2.38 c1.8,1.62,3.72,3.34,5.7,5c1.97,1.67,3.99,3.27,5.89,4.76c0.97,0.72,1.88,1.46,2.78,2.11c0.9,0.66,1.74,1.28,2.52,1.86 c3.17,2.29,5.28,3.81,5.28,3.81s-0.61-0.25-1.65-0.71c-0.53-0.23-1.16-0.52-1.87-0.89c-0.72-0.35-1.52-0.76-2.38-1.24 c-1.73-0.93-3.69-2.14-5.73-3.52c-1-0.71-2.07-1.41-3.08-2.22c-1.03-0.78-2.05-1.61-3.07-2.44c-0.98-0.87-1.98-1.72-2.92-2.61 c-0.96-0.86-1.84-1.79-2.71-2.65c-1.7-1.78-3.23-3.49-4.44-5.05c-0.62-0.76-1.16-1.48-1.63-2.13c-0.48-0.64-0.88-1.21-1.19-1.69 C30.17,57.66,29.82,57.11,29.82,57.11z"
         style="fill:#424242;"
         id="path17" />
      <path
         d="M65.99,83.93c0,0,0.54-0.41,1.51-1.09c0.97-0.69,2.32-1.67,3.92-2.89 c0.81-0.6,1.65-1.28,2.56-1.99c0.91-0.7,1.81-1.51,2.79-2.28c0.95-0.82,1.92-1.66,2.89-2.54c0.99-0.86,1.94-1.8,2.9-2.71 c0.94-0.94,1.91-1.85,2.8-2.82c0.91-0.94,1.79-1.89,2.63-2.81c0.81-0.95,1.64-1.83,2.37-2.72c0.74-0.88,1.44-1.71,2.07-2.49 c1.27-1.56,2.3-2.89,3.01-3.83c0.71-0.94,1.14-1.47,1.14-1.47s-0.28,0.62-0.8,1.68c-0.26,0.54-0.59,1.18-1,1.89 c-0.4,0.73-0.86,1.54-1.41,2.39c-0.53,0.87-1.14,1.79-1.82,2.74c-0.66,0.97-1.42,1.94-2.21,2.94c-0.82,0.97-1.63,2.02-2.56,2.99 c-0.89,1-1.87,1.96-2.82,2.93c-1.01,0.92-1.99,1.86-3.02,2.72c-1,0.9-2.07,1.68-3.07,2.47c-1.03,0.76-2.03,1.48-3.01,2.11 c-0.97,0.65-1.91,1.23-2.8,1.74c-0.87,0.53-1.7,0.96-2.44,1.34c-0.73,0.39-1.38,0.7-1.92,0.94 C66.62,83.67,65.99,83.93,65.99,83.93z"
         style="fill:#424242;"
         id="path19" />
      <path
         d="M41.25,88.67c0,0,0.3-0.08,0.83-0.18c0.53-0.11,1.26-0.25,2.14-0.41 c0.87-0.16,1.89-0.35,2.98-0.56c0.54-0.11,1.1-0.22,1.66-0.33c0.56-0.12,1.13-0.24,1.71-0.36c1.14-0.25,2.28-0.51,3.35-0.76 c1.07-0.26,2.07-0.51,2.93-0.72c0.84-0.22,1.51-0.47,1.96-0.72c0.46-0.24,0.7-0.44,0.7-0.44s-0.03,0.07-0.1,0.2 c-0.07,0.13-0.17,0.33-0.35,0.54c-0.34,0.44-0.95,1-1.77,1.47c-0.41,0.25-0.85,0.47-1.33,0.69c-0.48,0.22-0.98,0.46-1.53,0.65 c-1.07,0.42-2.25,0.77-3.45,1.03c-0.6,0.12-1.21,0.23-1.81,0.31c-0.6,0.09-1.19,0.12-1.77,0.16c-0.57,0.05-1.13,0.04-1.66,0.03 c-0.53,0-1.03-0.04-1.48-0.08c-0.91-0.08-1.68-0.22-2.2-0.34C41.55,88.76,41.25,88.67,41.25,88.67z"
         style="fill:#424242;"
         id="path21" />
      <path
         d="M67.44,85.14c0,0,0.4,0.09,1.08,0.27c0.68,0.19,1.67,0.42,2.84,0.7c0.59,0.15,1.22,0.28,1.9,0.42 c0.67,0.15,1.4,0.26,2.13,0.41c1.48,0.26,3.06,0.51,4.66,0.71c1.59,0.2,3.19,0.33,4.69,0.43c0.75,0.03,1.48,0.09,2.17,0.11 c0.69,0.03,1.34,0.05,1.95,0.05c1.21,0.01,2.22,0.03,2.93,0.01c0.71-0.01,1.12-0.01,1.12-0.01s-0.4,0.08-1.1,0.2 c-0.7,0.1-1.71,0.28-2.92,0.36c-1.22,0.1-2.64,0.17-4.17,0.16c-0.76-0.03-1.55-0.03-2.35-0.1c-0.8-0.05-1.61-0.14-2.42-0.22 c-0.81-0.12-1.62-0.22-2.4-0.37c-0.79-0.12-1.56-0.31-2.31-0.47c-1.49-0.35-2.85-0.77-4.01-1.15c-1.16-0.37-2.1-0.79-2.75-1.05 C67.81,85.32,67.44,85.14,67.44,85.14z"
         style="fill:#424242;"
         id="path23" />
    </g>
  </g>
  <g
     id="Layer_2"
     style="display:none;">
    <g
       style="display:inline;"
       id="g274">
      <g
         style="opacity:0.6;"
         id="g56">
        <circle
           cx="64"
           cy="64"
           r="28"
           style="opacity:0.61;fill:none;stroke:#000000;stroke-width:0.2625;stroke-miterlimit:10;"
           id="circle28" />
        <line
           style="opacity:0.61;fill:none;stroke:#000000;stroke-width:0.25;stroke-miterlimit:10;"
           x1="84"
           x2="84"
           y1="0"
           y2="128"
           id="line30" />
        <line
           style="opacity:0.61;fill:none;stroke:#000000;stroke-width:0.25;stroke-miterlimit:10;"
           x1="44"
           x2="44"
           y1="0"
           y2="128"
           id="line32" />
        <line
           style="opacity:0.61;fill:none;stroke:#000000;stroke-width:0.25;stroke-miterlimit:10;"
           x1="64"
           x2="64"
           y1="0"
           y2="128"
           id="line34" />
        <line
           style="opacity:0.61;fill:none;stroke:#000000;stroke-width:0.25;stroke-miterlimit:10;"
           x1="128"
           x2="0"
           y1="64"
           y2="64"
           id="line36" />
        <line
           style="opacity:0.61;fill:none;stroke:#000000;stroke-width:0.25;stroke-miterlimit:10;"
           x1="128"
           x2="0"
           y1="44"
           y2="44"
           id="line38" />
        <line
           style="opacity:0.61;fill:none;stroke:#000000;stroke-width:0.25;stroke-miterlimit:10;"
           x1="128"
           x2="0"
           y1="83.75"
           y2="83.75"
           id="line40" />
        <line
           style="opacity:0.61;fill:none;stroke:#000000;stroke-width:0.25;stroke-miterlimit:10;"
           x1="128"
           x2="0"
           y1="128"
           y2="0"
           id="line42" />
        <line
           style="opacity:0.61;fill:none;stroke:#000000;stroke-width:0.25;stroke-miterlimit:10;"
           x1="0"
           x2="128"
           y1="128"
           y2="0"
           id="line44" />
        <g
           style="opacity:0.61;"
           id="g48">
          <path
             d="M64,4.26c32.94,0,59.74,26.8,59.74,59.74S96.94,123.74,64,123.74S4.26,96.94,4.26,64S31.06,4.26,64,4.26 M64,4 C30.86,4,4,30.86,4,64s26.86,60,60,60s60-26.86,60-60S97.14,4,64,4L64,4z"
             id="path46" />
        </g>
        <path
           d="M107.97,115.97H20.03 c-4.42,0-8.03-3.61-8.03-8.03V20.03c0-4.42,3.61-8.03,8.03-8.03h87.94c4.42,0,8.03,3.61,8.03,8.03v87.91 C116,112.36,112.39,115.97,107.97,115.97z"
           style="opacity:0.61;fill:none;stroke:#000000;stroke-width:0.2578;stroke-miterlimit:10;"
           id="path50" />
        <path
           d="M100,124H28c-4.4,0-8-3.6-8-8 V12c0-4.4,3.6-8,8-8h72c4.4,0,8,3.6,8,8v104C108,120.4,104.4,124,100,124z"
           style="opacity:0.61;fill:none;stroke:#000000;stroke-width:0.2628;stroke-miterlimit:10;"
           id="path52" />
        <path
           d="M113.77,108H14.23 C8.6,108,4,103.4,4,97.77V30.28c0-5.63,4.6-10.23,10.23-10.23h99.54c5.63,0,10.23,4.6,10.23,10.23v67.48 C124,103.4,119.4,108,113.77,108z"
           style="opacity:0.61;fill:none;stroke:#000000;stroke-width:0.2627;stroke-miterlimit:10;"
           id="path54" />
      </g>
      <g
         id="g272">
        <g
           style="opacity:0.2;"
           id="g260">
          <defs
             id="defs59">
            <rect
               id="SVGID_2_"
               height="128"
               style="opacity:0.2;"
               width="128"
               x="0"
               y="0" />
          </defs>
          <clipPath
             id="SVGID_3_">
            <use
               style="overflow:visible;"
               xlink:href="#SVGID_2_"
               id="use61" />
          </clipPath>
          <g
             style="clip-path:url(#SVGID_3_);"
             clip-path="url(#SVGID_3_)"
             id="g258">
            <g
               id="g158">
              <line
                 style="fill:none;stroke:#000000;stroke-width:0.25;stroke-miterlimit:10;"
                 x1="-28"
                 x2="-28"
                 y1="160"
                 y2="-32"
                 id="line64" />
              <line
                 style="fill:none;stroke:#000000;stroke-width:0.25;stroke-miterlimit:10;"
                 x1="-24"
                 x2="-24"
                 y1="160"
                 y2="-32"
                 id="line66" />
              <line
                 style="fill:none;stroke:#000000;stroke-width:0.25;stroke-miterlimit:10;"
                 x1="-20"
                 x2="-20"
                 y1="160"
                 y2="-32"
                 id="line68" />
              <line
                 style="fill:none;stroke:#000000;stroke-width:0.25;stroke-miterlimit:10;"
                 x1="-16"
                 x2="-16"
                 y1="160"
                 y2="-32"
                 id="line70" />
              <line
                 style="fill:none;stroke:#000000;stroke-width:0.25;stroke-miterlimit:10;"
                 x1="-12"
                 x2="-12"
                 y1="160"
                 y2="-32"
                 id="line72" />
              <line
                 style="fill:none;stroke:#000000;stroke-width:0.25;stroke-miterlimit:10;"
                 x1="-8"
                 x2="-8"
                 y1="160"
                 y2="-32"
                 id="line74" />
              <line
                 style="fill:none;stroke:#000000;stroke-width:0.25;stroke-miterlimit:10;"
                 x1="-4"
                 x2="-4"
                 y1="160"
                 y2="-32"
                 id="line76" />
              <line
                 style="fill:none;stroke:#000000;stroke-width:0.25;stroke-miterlimit:10;"
                 x1="0"
                 x2="0"
                 y1="160"
                 y2="-32"
                 id="line78" />
              <line
                 style="fill:none;stroke:#000000;stroke-width:0.25;stroke-miterlimit:10;"
                 x1="4"
                 x2="4"
                 y1="160"
                 y2="-32"
                 id="line80" />
              <line
                 style="fill:none;stroke:#000000;stroke-width:0.25;stroke-miterlimit:10;"
                 x1="8"
                 x2="8"
                 y1="160"
                 y2="-32"
                 id="line82" />
              <line
                 style="fill:none;stroke:#000000;stroke-width:0.25;stroke-miterlimit:10;"
                 x1="12"
                 x2="12"
                 y1="160"
                 y2="-32"
                 id="line84" />
              <line
                 style="fill:none;stroke:#000000;stroke-width:0.25;stroke-miterlimit:10;"
                 x1="16"
                 x2="16"
                 y1="160"
                 y2="-32"
                 id="line86" />
              <line
                 style="fill:none;stroke:#000000;stroke-width:0.25;stroke-miterlimit:10;"
                 x1="20"
                 x2="20"
                 y1="160"
                 y2="-32"
                 id="line88" />
              <line
                 style="fill:none;stroke:#000000;stroke-width:0.25;stroke-miterlimit:10;"
                 x1="24"
                 x2="24"
                 y1="160"
                 y2="-32"
                 id="line90" />
              <line
                 style="fill:none;stroke:#000000;stroke-width:0.25;stroke-miterlimit:10;"
                 x1="28"
                 x2="28"
                 y1="160"
                 y2="-32"
                 id="line92" />
              <line
                 style="fill:none;stroke:#000000;stroke-width:0.25;stroke-miterlimit:10;"
                 x1="32"
                 x2="32"
                 y1="160"
                 y2="-32"
                 id="line94" />
              <line
                 style="fill:none;stroke:#000000;stroke-width:0.25;stroke-miterlimit:10;"
                 x1="36"
                 x2="36"
                 y1="160"
                 y2="-32"
                 id="line96" />
              <line
                 style="fill:none;stroke:#000000;stroke-width:0.25;stroke-miterlimit:10;"
                 x1="40"
                 x2="40"
                 y1="160"
                 y2="-32"
                 id="line98" />
              <line
                 style="fill:none;stroke:#000000;stroke-width:0.25;stroke-miterlimit:10;"
                 x1="44"
                 x2="44"
                 y1="160"
                 y2="-32"
                 id="line100" />
              <line
                 style="fill:none;stroke:#000000;stroke-width:0.25;stroke-miterlimit:10;"
                 x1="48"
                 x2="48"
                 y1="160"
                 y2="-32"
                 id="line102" />
              <line
                 style="fill:none;stroke:#000000;stroke-width:0.25;stroke-miterlimit:10;"
                 x1="52"
                 x2="52"
                 y1="160"
                 y2="-32"
                 id="line104" />
              <line
                 style="fill:none;stroke:#000000;stroke-width:0.25;stroke-miterlimit:10;"
                 x1="56"
                 x2="56"
                 y1="160"
                 y2="-32"
                 id="line106" />
              <line
                 style="fill:none;stroke:#000000;stroke-width:0.25;stroke-miterlimit:10;"
                 x1="60"
                 x2="60"
                 y1="160"
                 y2="-32"
                 id="line108" />
              <line
                 style="fill:none;stroke:#000000;stroke-width:0.25;stroke-miterlimit:10;"
                 x1="64"
                 x2="64"
                 y1="160"
                 y2="-32"
                 id="line110" />
              <line
                 style="fill:none;stroke:#000000;stroke-width:0.25;stroke-miterlimit:10;"
                 x1="68"
                 x2="68"
                 y1="160"
                 y2="-32"
                 id="line112" />
              <line
                 style="fill:none;stroke:#000000;stroke-width:0.25;stroke-miterlimit:10;"
                 x1="72"
                 x2="72"
                 y1="160"
                 y2="-32"
                 id="line114" />
              <line
                 style="fill:none;stroke:#000000;stroke-width:0.25;stroke-miterlimit:10;"
                 x1="76"
                 x2="76"
                 y1="160"
                 y2="-32"
                 id="line116" />
              <line
                 style="fill:none;stroke:#000000;stroke-width:0.25;stroke-miterlimit:10;"
                 x1="80"
                 x2="80"
                 y1="160"
                 y2="-32"
                 id="line118" />
              <line
                 style="fill:none;stroke:#000000;stroke-width:0.25;stroke-miterlimit:10;"
                 x1="84"
                 x2="84"
                 y1="160"
                 y2="-32"
                 id="line120" />
              <line
                 style="fill:none;stroke:#000000;stroke-width:0.25;stroke-miterlimit:10;"
                 x1="88"
                 x2="88"
                 y1="160"
                 y2="-32"
                 id="line122" />
              <line
                 style="fill:none;stroke:#000000;stroke-width:0.25;stroke-miterlimit:10;"
                 x1="92"
                 x2="92"
                 y1="160"
                 y2="-32"
                 id="line124" />
              <line
                 style="fill:none;stroke:#000000;stroke-width:0.25;stroke-miterlimit:10;"
                 x1="96"
                 x2="96"
                 y1="160"
                 y2="-32"
                 id="line126" />
              <line
                 style="fill:none;stroke:#000000;stroke-width:0.25;stroke-miterlimit:10;"
                 x1="100"
                 x2="100"
                 y1="160"
                 y2="-32"
                 id="line128" />
              <line
                 style="fill:none;stroke:#000000;stroke-width:0.25;stroke-miterlimit:10;"
                 x1="104"
                 x2="104"
                 y1="160"
                 y2="-32"
                 id="line130" />
              <line
                 style="fill:none;stroke:#000000;stroke-width:0.25;stroke-miterlimit:10;"
                 x1="108"
                 x2="108"
                 y1="160"
                 y2="-32"
                 id="line132" />
              <line
                 style="fill:none;stroke:#000000;stroke-width:0.25;stroke-miterlimit:10;"
                 x1="112"
                 x2="112"
                 y1="160"
                 y2="-32"
                 id="line134" />
              <line
                 style="fill:none;stroke:#000000;stroke-width:0.25;stroke-miterlimit:10;"
                 x1="116"
                 x2="116"
                 y1="160"
                 y2="-32"
                 id="line136" />
              <line
                 style="fill:none;stroke:#000000;stroke-width:0.25;stroke-miterlimit:10;"
                 x1="120"
                 x2="120"
                 y1="160"
                 y2="-32"
                 id="line138" />
              <line
                 style="fill:none;stroke:#000000;stroke-width:0.25;stroke-miterlimit:10;"
                 x1="124"
                 x2="124"
                 y1="160"
                 y2="-32"
                 id="line140" />
              <line
                 style="fill:none;stroke:#000000;stroke-width:0.25;stroke-miterlimit:10;"
                 x1="128"
                 x2="128"
                 y1="160"
                 y2="-32"
                 id="line142" />
              <line
                 style="fill:none;stroke:#000000;stroke-width:0.25;stroke-miterlimit:10;"
                 x1="132"
                 x2="132"
                 y1="160"
                 y2="-32"
                 id="line144" />
              <line
                 style="fill:none;stroke:#000000;stroke-width:0.25;stroke-miterlimit:10;"
                 x1="136"
                 x2="136"
                 y1="160"
                 y2="-32"
                 id="line146" />
              <line
                 style="fill:none;stroke:#000000;stroke-width:0.25;stroke-miterlimit:10;"
                 x1="137"
                 x2="137"
                 y1="166.05"
                 y2="-25.95"
                 id="line148" />
              <line
                 style="fill:none;stroke:#000000;stroke-width:0.25;stroke-miterlimit:10;"
                 x1="144"
                 x2="144"
                 y1="160"
                 y2="-32"
                 id="line150" />
              <line
                 style="fill:none;stroke:#000000;stroke-width:0.25;stroke-miterlimit:10;"
                 x1="148"
                 x2="148"
                 y1="160"
                 y2="-32"
                 id="line152" />
              <line
                 style="fill:none;stroke:#000000;stroke-width:0.25;stroke-miterlimit:10;"
                 x1="152"
                 x2="152"
                 y1="160"
                 y2="-32"
                 id="line154" />
              <line
                 style="fill:none;stroke:#000000;stroke-width:0.25;stroke-miterlimit:10;"
                 x1="156"
                 x2="156"
                 y1="160"
                 y2="-32"
                 id="line156" />
            </g>
            <g
               id="g254">
              <line
                 style="fill:none;stroke:#000000;stroke-width:0.25;stroke-miterlimit:10;"
                 x1="-32"
                 x2="160"
                 y1="-28"
                 y2="-28"
                 id="line160" />
              <line
                 style="fill:none;stroke:#000000;stroke-width:0.25;stroke-miterlimit:10;"
                 x1="-32"
                 x2="160"
                 y1="-24"
                 y2="-24"
                 id="line162" />
              <line
                 style="fill:none;stroke:#000000;stroke-width:0.25;stroke-miterlimit:10;"
                 x1="-32"
                 x2="160"
                 y1="-20"
                 y2="-20"
                 id="line164" />
              <line
                 style="fill:none;stroke:#000000;stroke-width:0.25;stroke-miterlimit:10;"
                 x1="-32"
                 x2="160"
                 y1="-16"
                 y2="-16"
                 id="line166" />
              <line
                 style="fill:none;stroke:#000000;stroke-width:0.25;stroke-miterlimit:10;"
                 x1="-32"
                 x2="160"
                 y1="-12"
                 y2="-12"
                 id="line168" />
              <line
                 style="fill:none;stroke:#000000;stroke-width:0.25;stroke-miterlimit:10;"
                 x1="-32"
                 x2="160"
                 y1="-8"
                 y2="-8"
                 id="line170" />
              <line
                 style="fill:none;stroke:#000000;stroke-width:0.25;stroke-miterlimit:10;"
                 x1="-32"
                 x2="160"
                 y1="-4"
                 y2="-4"
                 id="line172" />
              <line
                 style="fill:none;stroke:#000000;stroke-width:0.25;stroke-miterlimit:10;"
                 x1="-32"
                 x2="160"
                 y1="0"
                 y2="0"
                 id="line174" />
              <line
                 style="fill:none;stroke:#000000;stroke-width:0.25;stroke-miterlimit:10;"
                 x1="-32"
                 x2="160"
                 y1="4"
                 y2="4"
                 id="line176" />
              <line
                 style="fill:none;stroke:#000000;stroke-width:0.25;stroke-miterlimit:10;"
                 x1="-32"
                 x2="160"
                 y1="8"
                 y2="8"
                 id="line178" />
              <line
                 style="fill:none;stroke:#000000;stroke-width:0.25;stroke-miterlimit:10;"
                 x1="-32"
                 x2="160"
                 y1="12"
                 y2="12"
                 id="line180" />
              <line
                 style="fill:none;stroke:#000000;stroke-width:0.25;stroke-miterlimit:10;"
                 x1="-32"
                 x2="160"
                 y1="16"
                 y2="16"
                 id="line182" />
              <line
                 style="fill:none;stroke:#000000;stroke-width:0.25;stroke-miterlimit:10;"
                 x1="-32"
                 x2="160"
                 y1="20"
                 y2="20"
                 id="line184" />
              <line
                 style="fill:none;stroke:#000000;stroke-width:0.25;stroke-miterlimit:10;"
                 x1="-32"
                 x2="160"
                 y1="24"
                 y2="24"
                 id="line186" />
              <line
                 style="fill:none;stroke:#000000;stroke-width:0.25;stroke-miterlimit:10;"
                 x1="-32"
                 x2="160"
                 y1="28"
                 y2="28"
                 id="line188" />
              <line
                 style="fill:none;stroke:#000000;stroke-width:0.25;stroke-miterlimit:10;"
                 x1="-32"
                 x2="160"
                 y1="32"
                 y2="32"
                 id="line190" />
              <line
                 style="fill:none;stroke:#000000;stroke-width:0.25;stroke-miterlimit:10;"
                 x1="-32"
                 x2="160"
                 y1="36"
                 y2="36"
                 id="line192" />
              <line
                 style="fill:none;stroke:#000000;stroke-width:0.25;stroke-miterlimit:10;"
                 x1="-32"
                 x2="160"
                 y1="40"
                 y2="40"
                 id="line194" />
              <line
                 style="fill:none;stroke:#000000;stroke-width:0.25;stroke-miterlimit:10;"
                 x1="-32"
                 x2="160"
                 y1="44"
                 y2="44"
                 id="line196" />
              <line
                 style="fill:none;stroke:#000000;stroke-width:0.25;stroke-miterlimit:10;"
                 x1="-32"
                 x2="160"
                 y1="48"
                 y2="48"
                 id="line198" />
              <line
                 style="fill:none;stroke:#000000;stroke-width:0.25;stroke-miterlimit:10;"
                 x1="-32"
                 x2="160"
                 y1="52"
                 y2="52"
                 id="line200" />
              <line
                 style="fill:none;stroke:#000000;stroke-width:0.25;stroke-miterlimit:10;"
                 x1="-32"
                 x2="160"
                 y1="56"
                 y2="56"
                 id="line202" />
              <line
                 style="fill:none;stroke:#000000;stroke-width:0.25;stroke-miterlimit:10;"
                 x1="-32"
                 x2="160"
                 y1="60"
                 y2="60"
                 id="line204" />
              <line
                 style="fill:none;stroke:#000000;stroke-width:0.25;stroke-miterlimit:10;"
                 x1="-32"
                 x2="160"
                 y1="64"
                 y2="64"
                 id="line206" />
              <line
                 style="fill:none;stroke:#000000;stroke-width:0.25;stroke-miterlimit:10;"
                 x1="-32"
                 x2="160"
                 y1="68"
                 y2="68"
                 id="line208" />
              <line
                 style="fill:none;stroke:#000000;stroke-width:0.25;stroke-miterlimit:10;"
                 x1="-32"
                 x2="160"
                 y1="72"
                 y2="72"
                 id="line210" />
              <line
                 style="fill:none;stroke:#000000;stroke-width:0.25;stroke-miterlimit:10;"
                 x1="-32"
                 x2="160"
                 y1="76"
                 y2="76"
                 id="line212" />
              <line
                 style="fill:none;stroke:#000000;stroke-width:0.25;stroke-miterlimit:10;"
                 x1="-32"
                 x2="160"
                 y1="80"
                 y2="80"
                 id="line214" />
              <line
                 style="fill:none;stroke:#000000;stroke-width:0.25;stroke-miterlimit:10;"
                 x1="-32"
                 x2="160"
                 y1="84"
                 y2="84"
                 id="line216" />
              <line
                 style="fill:none;stroke:#000000;stroke-width:0.25;stroke-miterlimit:10;"
                 x1="-32"
                 x2="160"
                 y1="88"
                 y2="88"
                 id="line218" />
              <line
                 style="fill:none;stroke:#000000;stroke-width:0.25;stroke-miterlimit:10;"
                 x1="-32"
                 x2="160"
                 y1="92"
                 y2="92"
                 id="line220" />
              <line
                 style="fill:none;stroke:#000000;stroke-width:0.25;stroke-miterlimit:10;"
                 x1="-32"
                 x2="160"
                 y1="96"
                 y2="96"
                 id="line222" />
              <line
                 style="fill:none;stroke:#000000;stroke-width:0.25;stroke-miterlimit:10;"
                 x1="-32"
                 x2="160"
                 y1="100"
                 y2="100"
                 id="line224" />
              <line
                 style="fill:none;stroke:#000000;stroke-width:0.25;stroke-miterlimit:10;"
                 x1="-32"
                 x2="160"
                 y1="104"
                 y2="104"
                 id="line226" />
              <line
                 style="fill:none;stroke:#000000;stroke-width:0.25;stroke-miterlimit:10;"
                 x1="-32"
                 x2="160"
                 y1="108"
                 y2="108"
                 id="line228" />
              <line
                 style="fill:none;stroke:#000000;stroke-width:0.25;stroke-miterlimit:10;"
                 x1="-32"
                 x2="160"
                 y1="112"
                 y2="112"
                 id="line230" />
              <line
                 style="fill:none;stroke:#000000;stroke-width:0.25;stroke-miterlimit:10;"
                 x1="-32"
                 x2="160"
                 y1="116"
                 y2="116"
                 id="line232" />
              <line
                 style="fill:none;stroke:#000000;stroke-width:0.25;stroke-miterlimit:10;"
                 x1="-32"
                 x2="160"
                 y1="120"
                 y2="120"
                 id="line234" />
              <line
                 style="fill:none;stroke:#000000;stroke-width:0.25;stroke-miterlimit:10;"
                 x1="-32"
                 x2="160"
                 y1="124"
                 y2="124"
                 id="line236" />
              <line
                 style="fill:none;stroke:#000000;stroke-width:0.25;stroke-miterlimit:10;"
                 x1="-32"
                 x2="160"
                 y1="128"
                 y2="128"
                 id="line238" />
              <line
                 style="fill:none;stroke:#000000;stroke-width:0.25;stroke-miterlimit:10;"
                 x1="-32"
                 x2="160"
                 y1="132"
                 y2="132"
                 id="line240" />
              <line
                 style="fill:none;stroke:#000000;stroke-width:0.25;stroke-miterlimit:10;"
                 x1="-32"
                 x2="160"
                 y1="136"
                 y2="136"
                 id="line242" />
              <line
                 style="fill:none;stroke:#000000;stroke-width:0.25;stroke-miterlimit:10;"
                 x1="-32"
                 x2="160"
                 y1="140"
                 y2="140"
                 id="line244" />
              <line
                 style="fill:none;stroke:#000000;stroke-width:0.25;stroke-miterlimit:10;"
                 x1="-32"
                 x2="160"
                 y1="144"
                 y2="144"
                 id="line246" />
              <line
                 style="fill:none;stroke:#000000;stroke-width:0.25;stroke-miterlimit:10;"
                 x1="-32"
                 x2="160"
                 y1="148"
                 y2="148"
                 id="line248" />
              <line
                 style="fill:none;stroke:#000000;stroke-width:0.25;stroke-miterlimit:10;"
                 x1="-32"
                 x2="160"
                 y1="152"
                 y2="152"
                 id="line250" />
              <line
                 style="fill:none;stroke:#000000;stroke-width:0.25;stroke-miterlimit:10;"
                 x1="-32"
                 x2="160"
                 y1="156"
                 y2="156"
                 id="line252" />
            </g>
            <path
               d="M159.75-31.75v191.5h-191.5v-191.5H159.75 M160-32H-32v192h192V-32L160-32z"
               id="path256" />
          </g>
        </g>
        <g
           id="g270">
          <rect
             height="128"
             style="opacity:0.3;fill:#F44336;"
             width="4"
             x="0"
             y="0"
             id="rect262" />
          <rect
             height="128"
             style="opacity:0.3;fill:#F44336;"
             width="4"
             x="124"
             y="0"
             id="rect264" />
          <rect
             height="120"
             style="opacity:0.3;fill:#F44336;"
             transform="matrix(-1.836970e-16 1 -1 -1.836970e-16 66 -62)"
             width="4"
             x="62"
             y="-58"
             id="rect266" />
          <rect
             height="120"
             style="opacity:0.3;fill:#F44336;"
             transform="matrix(-1.836970e-16 1 -1 -1.836970e-16 190 62)"
             width="4"
             x="62"
             y="66"
             id="rect268" />
        </g>
      </g>
    </g>
  </g>
</svg>
